<?xml version="1.0" standalone="no"?>
<!DOCTYPE svg PUBLIC "-//W3C//DTD SVG 20010904//EN"
 "http://www.w3.org/TR/2001/REC-SVG-20010904/DTD/svg10.dtd">
<svg version="1.0" xmlns="http://www.w3.org/2000/svg"
 width="441.000000pt" height="441.000000pt" viewBox="0 0 441.000000 441.000000"
 preserveAspectRatio="xMidYMid meet">
<metadata>
Created by potrace 1.14, written by Peter Selinger 2001-2017
</metadata>
<g transform="translate(0.000000,441.000000) scale(0.100000,-0.100000)"
fill="#000000" stroke="none">
<path d="M2142 4390 c-10 -11 -193 -399 -407 -862 -214 -464 -408 -883 -431
-933 -23 -49 -92 -200 -154 -335 -114 -249 -127 -273 -139 -266 -12 8 -83 -38
-104 -65 -26 -36 -33 -106 -14 -150 37 -89 155 -123 229 -67 51 39 72 89 64
153 -6 52 -3 57 218 536 123 266 240 520 260 564 414 895 530 1145 536 1145 3
0 84 -168 179 -373 155 -336 171 -376 162 -401 -16 -41 -13 -82 9 -126 82
-161 319 -73 286 105 -9 45 -56 99 -97 111 -31 9 -41 27 -247 474 -117 256
-223 475 -235 488 -27 29 -88 30 -115 2z"/>
<path d="M3144 2360 c-38 -8 -77 -37 -98 -71 -47 -78 -17 -176 65 -217 l47
-23 283 -612 c155 -337 300 -650 321 -697 58 -124 141 -303 182 -394 20 -43
35 -80 33 -83 -2 -2 -70 25 -151 59 -133 57 -150 67 -166 98 -74 144 -265 117
-295 -41 -20 -108 102 -207 204 -167 l37 15 245 -104 c279 -118 293 -123 334
-112 37 11 55 34 55 73 0 20 -171 401 -462 1031 -253 550 -460 1005 -460 1010
14 84 12 132 -7 162 -35 56 -104 86 -167 73z"/>
<path d="M2105 991 c-22 -11 -125 -56 -230 -101 -104 -45 -214 -92 -243 -106
-29 -13 -55 -24 -57 -24 -2 0 -28 -11 -57 -24 -29 -13 -190 -83 -358 -155
-168 -73 -314 -136 -325 -141 -49 -24 -410 -177 -413 -175 -1 1 9 29 24 63 23
54 30 62 70 77 120 45 132 215 21 280 -17 10 -50 17 -78 17 -105 0 -170 -87
-147 -195 8 -40 5 -51 -38 -142 -25 -55 -61 -133 -80 -173 -38 -82 -43 -129
-16 -161 39 -49 37 -50 1047 388 l950 412 83 -33 c81 -32 84 -35 108 -85 31
-65 73 -93 140 -93 58 0 105 25 135 72 26 42 23 131 -6 171 -38 52 -129 81
-175 57 -15 -8 -45 0 -139 40 -130 55 -156 58 -216 31z"/>
</g>
</svg>
